<svg xmlns="http://www.w3.org/2000/svg" viewBox="0 0 692.03 314.87"><defs><style>.cls-1{fill:#fdd404;}.cls-2{fill:#025bba;}.cls-3{fill:#f6f6f6;}</style></defs><g id="Ebene_2" data-name="Ebene 2"><g id="Ebene_1-2" data-name="Ebene 1"><path class="cls-1" d="M670.51,158c3.85,2.81,9.42,1.45,14,6.44-10.88-1.72-20.37,1.41-30.16-.33,5.91,6.54,14.73,2.71,21.35,7.67-3.18.8-6.55.59-8.8,3.19.63,1.83,2.63.66,3.74,1.59a5.19,5.19,0,0,1,1.79,3.54c-2.49.09-4.86.51-7.16-1s-5.18-.69-7.81-.64c-1.07,0-2.06.41-2.24,1.55-.21,1.35.61,2,1.88,2.48a45.28,45.28,0,0,0,10.12,2.29c-.16,1.95-1.65,1.5-2.58,1.55-3.12.16-5.92-.19-3.34,4.64,1.53,2.87-1.94,2.42-3.63,3-2,.66-5.87-1.53-5.66,2.66.18,3.5,3.37,3.91,6.37,3.93,2.31,0,4.55-.71,6.65,1.8,1.38,1.68,4.62.84,6.68,0,3.4-1.43,6.85,0,10.24-.87,2.75-.71,3,2.52,4.62,3.79-2,2.15-5.72-.29-7.39,2.89-.64,1.22-.45-.36-.59-.5-.8-.84-1.28-2-2.18-2.69a4.61,4.61,0,0,0-5.56,0c-1.36,1.2.33,2.66,1.42,3.62s2,1.86,1,2.87a2.67,2.67,0,0,1-4-.49c-2.92-3.63-8.17-2.41-8.68-.45-1,3.83-7.6,2.14-6,7.19a19.46,19.46,0,0,1-2.9.47c-3.26,0-6.55-.25-10.37.79,2.71,3,7,1.54,9.14,4.8l-4.6.84c1.4,2.28,4.91,2,5,5.26-2.77,0-4.62-1.88-6.8-3.09-1.82-1-3.78-4.17-5.82-1.77-1.23,1.45,2.2,2.69,2.92,5.34-9.91-7.22-19.91-4.68-30.38-1.09a6.62,6.62,0,0,0,5.32,1.2c6.37-.93,12.31,1.42,18.47,2,.65.06,1.77,0,1.9.27,2.52,6,8.16,2.7,13.67,4.61-19.09,7.86-37.88,10.21-58.26,11.21,6.28-3.4,12.84-.35,17.51-4.68-1.87-3.46-8-6.83-11.88-6.06-12.18,2.44-24.51,3.59-36.79,5.17-6.32.82-13.68.42-19.27,5.12a1.86,1.86,0,0,1-1.44.17c-12.08-3.07-23,2.4-34.34,4.64-1.39.28-2.67,1.33-4.21.16-.55-.41-1.58-.18-2.39-.24-.39,5.41-5.76,2.65-9.3,5.46h15.08c-2.66,2.86-5.88,1.19-8.09,3.26,4.67,4.19,9,.42,13.31-.22,13.92-2.08,27-9,41.59-7.24l.74.81a39.82,39.82,0,0,0,21,.68c6.8-1.5,13.42-1,20.14-1.14,2.14,0,4.38.72,6.43-.07,8.21-3.18,16.85-2,25.18-1.76,8.16.22,16.27-.23,24.41-.14a28.83,28.83,0,0,1,6.8.8c-6.54,1.72-13.32.76-19.91,2.37-4.93,1.2-9.78,2.69-14.68,4-3.32.87-6.36,2.75-10,2.6a4.36,4.36,0,0,0-3.91,1.82c-2.59,3.61-8,5.77-11.81,3.93-6.93-3.36-13.87-1-20.81-.73-1.3,0-2.6.86-3.87.8-12.52-.63-24.83,1.86-37.24,2.75-14.53,1-29,2.89-43.58,4.19-10,.89-19.95,2.64-29.92,4-15.5,2.05-31.18,3-46.44,6.88-5.4,1.36-11.18,1.55-16.73,2.05-13.53,1.23-26.9,3.63-40.43,4.84-11.32,1-22.47,3.84-33.79,5-6.54.68-13,1.76-19.48,2.77-13.44,2.1-26.95,3.86-40.45,5.23a183,183,0,0,1-33.92.25c-11.8-1-23.45.5-35.17.21-3-.08-6.42-2-9.5,1.05,2.49,2,5.29.56,8,2.17a8.45,8.45,0,0,1-5.55.9c-4.14-.78-8.2-1.67-11.28,2.19-1.44-1.64-.22-2.33.19-2.44,5.22-1.47,3.87-6.25,5.17-9.75.53-1.42.07-1.7-.85-2.16-1.89-.95-4.38-.75-5.48-3.27-.24-.56-1.72-.24-2.59.57-5.14,4.75-10.72,3.48-16.65,1.58-4.77-1.52-9.89-.55-14.86-.53-.94,0-1.32.83-1.31,1.76s.48,1.73,1.35,1.8a9.08,9.08,0,0,0,3.4-.35c2.26-.75,3.43.33,4.35,2.17.37.74,1,1.64-.17,1.95-1.55.4-2.83,1.18-4.66-.82-2.21-2.42-5.55-1.86-7.49,1.34-2.47,4.08-6.32,5.12-10.18,3.43-2.88-1.26-5.12-1-8-.55-4,.68-8.11,1.88-12,.17,6.92-4.9,14.94-2.28,22.51-3.12,2-.22,5,0,4.91-2.07a4.08,4.08,0,0,0-5.38-3.49c-10.53,3.68-20.68.62-30.89-1.52.6-1.53,3.9-3.08,2.58-3.88-2.41-1.46-3-5.44-6.74-4.86a4.6,4.6,0,0,1-3.39-.32,2.1,2.1,0,0,1-1.27-1.95c.07-1.1.83-1.25,1.76-1.14,8.19,1,15.91-2.1,23.92-2.77a16.43,16.43,0,0,1,8.6,1.68c12.43,6.06,25.88,6.91,39.41,8.74-1.06-4.5-1.06-4.54-5-4.75-2.66-.14-5.33-.17-8-.25-5.12-.16-5.61-.55-7.34-6a1.47,1.47,0,0,0-1.49-1.05c-3.8-.14-7.25-1.89-11.21-1.75-8.24.28-16.5-.24-24.75-.27-5.72,0-11.54-1.45-17.09,1.49a3.75,3.75,0,0,1-4.62-.61c6.34-3.17,13.12-3.36,19.89-3.62,1.84-.08,4.3-.16,4.07-2.43-.18-1.8-2-3.24-4.48-3.06-3.42.26-6.9.58-10-1.67a3,3,0,0,0-2.34,0c-1.89,6.07-5.78,1.48-8.62,1.53-8.75.14-17.59.89-25.75-3.75-1.61-.91-4.19-.13-6.42-.13,2.44,2.35,1.38,8,7.23,7.16-7.69.58-15.15,1.21-22.48-.29a34.34,34.34,0,0,0-7.31-1c-1.09,0-2.48.39-2.41-1.53A2.59,2.59,0,0,1,25.62,268c2.77-1.5,6.23-.22,8.83-2.73-6.66-.48-12.66-4-19.47-3.69,6.62-2.32,13.24-1.54,20.55,1-1.48-2.86-3-3.49-4.85-3.75-1.6-.23-3-.7-2.69-2.77s1.94-1.87,3.41-2c1.1-.08,2.3.29,3.37-.73-11.73-2-22.69-6.12-33.94-9.54,3.89-1.31,7.38-5,11.69-1.17l-5,2.41c6.61,2.31,12.38,1.46,18,1.58.25,0,.69-.68.74-1.07.09-.86-.65-1-1.29-1.14-2.2-.33-4.64.41-6.9-1.71,2.49-1,6.26,1,6.91-3.07.76.2,2,.17,2.2.62,1.6,3.32,5.64,3,7.81,5.5a1.92,1.92,0,0,0,2.59.67c3-1.95,5.17-.15,7.53,1.39,1.06.7,2.61,2.46,3.4,1.6,4-4.34,8.9-.66,13.22-1.55-.06-1.54-1.11-1.32-1.82-1.49-1.69-.41-2.86-1.37-2.29-3.14S60,241,61.72,241.7c5.39,2.15,10.87,1.66,16.4.72a7.28,7.28,0,0,1,3.47,0c7.08,2.57,13-1.83,19.6-2.87-4-2.43-8.67-.19-12.83-2.25-4.77-2.36-9.43-3.86-15.36-1.45-3.54,1.43-8.82-.59-13-1.9s-9.7.29-12-5.3c-.13-.32-1.8-.47-2.32-.09-6.44,4.61-12.74.35-19.09-.18-2.48-.2-1.89-2.36-2.53-3.71-.9-1.91.64-2.14,1.87-2.66a24.1,24.1,0,0,0,2-1.36c1.33-.72,3.66-.07,3.79-2.36.06-1.09-1.34-1.53-2.25-1.54-1.91,0-4.37-1.71-5.46,1.48a3.27,3.27,0,0,1-1,1.61c-2.25,1.56-20.08-.22-23-2.63,3.67-.86,6.92-2.12,10.21-2.27,4.31-.2,7.75-2.44,11.59-3.72,1.66-.56,3.1-1.44,2.53-3.54-.52-1.92-2.16-1-3.36-1.09s-2.29-.17-4.54-.33a24.53,24.53,0,0,1,10.81-3.69,27.13,27.13,0,0,0,7.67-1.9,16.8,16.8,0,0,0,1.76-.6c-1-6.64,4.31-3.47,6.44-3.54,6.45-.21,12.33-1.28,17.55-5.44,2.07-1.66,4.83-2.46,8.09-4-5.14-1.49-9.69.07-14.93-1.11,5-2.54,9.34-3.71,14.09-3.52a6.26,6.26,0,0,0,5.86-2.7c2.7-3.48,7.27-4.11,11.36-5.16,1.11-.29,2.78-.79,3,1.4A2.3,2.3,0,0,0,88.9,177c5.78-3.12,10.73,3.18,16.43,1.43,1.61-.49,3.81-.45,3.82-2.4s-2.27-1.53-3.6-1.56a6.89,6.89,0,0,1-4.94-1.72c-2.63-2.35-5.9-2.53-9.33-2.19-2.08.21-2.22-.27-1.55-2.49.13-.42.35-1.13.17-1.28-1.46-1.19-3.41-2.9-1.29-4.23,1.73-1.07,4.37-2.25,6.86-.79.87.51,1.85.81,2.48.34-1.28,1.6-3.89,1.6-6,2.88,8.81,4.5,33.55,7,41.19,4.22-2.16-.91-4.08-1.76-6-2.53-1.48-.59-2.41-.55-1.26-2.95.76-1.59-2.58-2.43-4.72-2.5q-8.76-.26-17.51-.63c-1.28-.06-1.48-1.11-1.52-2.16,2.16-.07,4.32-.19,6.48-.19h540C655.87,158.27,663.19,158.11,670.51,158Zm-34.1,78.6c-3.13-.18-5.84-.44-8.55-.47-1.23,0-2.88-.51-3.58.93-.84,1.72,2.5.81,1.91,2.67-3.41,0-6.83-.13-10.24.05-1.73.1-4.12.27-3.69,2.9s3.34,2,4.34,1.46c4-2.28,8.41-1.12,12.57-1.79.92-.15,2.81,0,2.55-.72C629.93,236.73,635.11,239.44,636.41,236.62ZM35.5,265.76c2,.58,3.44,1.29,4.69-.09a.93.93,0,0,0-.2-.87C38.57,263.83,37.33,264.28,35.5,265.76Z"/><path class="cls-2" d="M670.51,158c-7.32.09-14.64.25-22,.25h-540c-2.16,0-4.32.12-6.48.19-12.33-2.5-24.94-3.8-37.46-7.68,3-3.31,5.13-6.28,9.76-4.52-5-3.94-11.39-4.21-15.61-8.41,2.82-.82,5.74-2.49,9.18-2a2.28,2.28,0,0,0,2.7-1.71c.37-1.89-1.32-2.75-2.66-3a53.13,53.13,0,0,0-13.76-1.49,14.1,14.1,0,0,1-5.47-.41c1.45-1.86,3.58-1.15,5.06-2,1.21-.66,7.09.86,2.21-3.65a1.59,1.59,0,0,1-.23-.81c4.39-1.26,3.23-7.83,8.38-8.57,2.74-.4,4.51-2.63,5.81-5.41-5.46-1.93-10.77-4.14-16.66-4.7l.15-1.27,7.79-.65c-5.2-3.22-10.58-2.5-16.5-4.43,13.08-.54,23.58-6.88,35.34-8.17,4.35-.48,4.56-2.58,2.16-6-4-5.63-3.89-5.72-11.16-5.89-.66-1.55,2.16-2.26.87-4-2-.63-3.73.6-5.63,1-3.29.76-5.82-.76-7.79-3.18-2.23-2.74.67-3.94,1.84-5.77C65.8,57.23,73.15,52,83.53,51.62c1.12,0,2.17-.6,3.35,0,4.28,2,1.58-2.71,3.27-3.75,1.09-.67-1.12-1.56-2.37-1.57-2.74,0-5.47-1.41-8,1.47-1.28,1.44-3.49-1.67-5.85-1-.72.19-.91-2.14.12-2.85,1.66-1.16.39-5.59,4.68-3.93,1.73.67,4.22.63,3.6-2.77-.21-1.19-.52-2.73,1.9-1.83s2.15-1.62,2.6-2.75c.83-2.06,1.56-4,3.76-5,1.67-.73,3-3.11,4.77.58,1,2,4.37,1.36,6.73,1.31.45-2.13-1.77-2.17-2-4,2.53,1.15,4.46.49,5.65-1.89,1.94,3.22,6.14-.67,8,2.53.75,1.27,1.77,1.32,3,1.06,2.53-.55,5.08-1,7.58-1.68,1.46-.39,3.76.19,3.94-2.12.16-2.14-2.94,0-3.26-2.25,4.54-1.13,9.09-2.3,13.65-3.39,2.08-.51,3.68-.86,3-3.9-.57-2.38,4.76-6.62,7.09-7.45,3.3-1.17,7-1.37,9.93-4.64.41,3.38.94,5.79,2.6,7.69s2.86,4.71,5.24.3c1.4-2.59,9.06-2.15,10.73.3,2.32,3.39,6,3.09,9.26,3.44a98.07,98.07,0,0,0,11,0c1.63,0,3.31-.16,4.26,2.07a70.06,70.06,0,0,1-18.62,5.14c2.75,2.38,5.22,1.59,7.53,1.54,17.58-.39,35.14-1.66,52.74-.89,3.82.17,7.76.52,11.45-.19,4.29-.82,7.28,2.37,11.41,2.41,8.41.07,15.78-3,24.43-6-5.89-.73-11.06-.41-15.62-2.91a1.87,1.87,0,0,0-1.72.47c-4.09,4.92-7.33.75-11-1.26,5.92,1,11.3.39,15.52-4.16l.8-1c.39.31,1.16.76,1.1.93-2.34,7,2.92,4.57,5.52,4,3.74-.81,6.68,1.11,10,1.84,1.3.28,1.24.51-.91,2.81l4.5.4c-5.74,5.17-12.7,5.2-19.29,5.91-.25,1.53.6,1.73,1.42,1.81,8.62.83,17.23,1.6,25.61-1.69,1.41-.55,2.59-1,4.42,1.05s6.3.7,9-.56c5.34-2.45,11.21-2.05,16.58-4,1.86-.68,3.69-.55,4.61-3.31s10.19-5,13.58-3.89c4.08,1.33,8.15,2.56,12.54,1.59,1-.21,2.52,0,2.32,1.15-.58,3.29,1.51,1.36,2.28,1.2a55.12,55.12,0,0,0,8.16-2.19c2.43-.92,2.95.34,3.36,2.31-16,2.55-32.5,1.85-48.63,6.35A2.78,2.78,0,0,0,338,25.6c9.28-2.9,18.22.72,27.3,1.42,4.32.33,8.24-1.83,12.57-1.3,1.85.22-.3-1.95.87-2.54,1.34-.68,3.09-1.65,4-.1,1.13,2,2.4,2.78,3.54.76,1.4-2.49-1.88-1.34-2.52-2.41-.17-.27-.36-.53-.58-.84,1.67-2.2,4.45-.74,6.44-1.93.59-.35,1.19.25,1.52.91,1.15,2.31,2.66,2.92,4.18,1.07,1.76-2.13,3.32-1.6,5.59-1.45,3.72.25,7.47-.39,9.52-4.55,1-2,10.87-2.51,15.37-.7-2.8.34-4.68.52-6.55.81s-3.71-.43-6.47,2.05c5.93-1.29,10.44,3.2,15.51-1.3,2.2-1.95,6.19-1.86,10-.91-2.76,2.66-6.61,1-9.53,4.19,4.34.4,7.52-1.2,10.78-2.44a14.83,14.83,0,0,1,11.38.43c-4,2.68-8.8.61-13.77,2.9,4.37,1.8,10.12,3.41,11.26,2,4.25-5.11,9.31-1.2,13.65-2.61.67-.21,1.53.16,2.68.32-3.51,2.92-7.62,1-11.09,2.82,3.69.6,6.76,3.2,11.16,1.12,3.59-1.69,5.41,2.38,7.82,4.37-12.15-.53-24-3.74-36.09-2.29,7.23.62,13.17,6.47,20.85,5,2.6-.48,4.39,3.1,6.73,2.72,4.72-.74,7.95,3,12.24,3.23,5,.23,9.22,2.68,13.68,4.48a93.62,93.62,0,0,0,12.51,4.54c2.1.51,5.11,3.69,7-.78.32-.76,1.34.43,2,.71a11.07,11.07,0,0,0,8.33.41c-5.81-1.15-8.16-5.55-12.37-7.44a63.69,63.69,0,0,0,31.55,6.12c-4.71-3.32-7.46-8-13.32-8.28-1.71-.09-3.51-1.61-4.31-3.75-.53-1.38-.86-1.34-2,.05-.77.94-1.5.43-2.21.17-4.67-1.7-9.5-1.39-14.33-1.31l.1.08c.3-1.24.2-3,1-3.62,4.75-3.49,1.59-5.09-1.76-6.72,2.53-1.53,4-.16,5.91.81,1.71.85,5.29,4.91,6-1.37.18-1.54,1.55-.2,2.34-.07,3.86.64,6.92,3.13,10.41,4.63,8.27,3.54,16.45,7.29,24.58,11.13,1.59.76,3.6,1.1,4,3.79.5,3.21,2.49-1,4.44.37s5.13,3.28,7.93.3c.69-.74,1.83-.24,2.73.38,5.11,3.57,10.6,6.64,15.11,11,1.7,1.65,3.91,2.43,5.88,3.73-9.37,1.45-16.48-4.46-24.43-7.59.08-1.28,1.37-2.52-.62-3.75-3-1.87-5.63-1-8.46.26,2.09,2.94,5.7,2.58,8.22,4.34.1,1.36,3.14,1.55,1.54,3.42-1.09,1.28-2.69.94-4.14.21-1.74-.88-2.87-2.78-5.66-1.42-2,1-.65-2.47-2.29-3.47-4.38-2.65-8.44-5.85-15.32-6,8.06,4.78,13.7,10.63,20,15.72.92.75,2.57,1.53,3.18.84,4.08-4.62,7.91-.94,10.86.9,3.58,2.23,7.83,2.21,11.22,4.58a2.84,2.84,0,0,0,3.27.1c-1.67-3-5.41-2.83-8.31-5.45,9.85-.56,14.89,8.67,23.37,9.61-5.74,0-11.16-2.28-16.85-1.91-.41-.69-1.23-.87-1.57-.35-.49.75.41.9.94,1.11,8.81,5.26,19,5.29,28.58,7.53a13.37,13.37,0,0,0,8.65-1c-5-2.77-10.5-1.71-14.46-5,6.33-.69,11.88,2.69,17.77,3.14.71,2.68-3.25.32-2.44,3.08.58,1.94,2,2,3.42,2.23,4.92.64,9.21,4.74,14.76,2.44.92-.39,2.76,1.45,4.17,2.25-.73,1.66-2.08,2.26-3.27,1.66-3.16-1.58-5.89,0-7.65,1.8-2.73,2.77-5.63,2.88-8.62,1.79-7.12-2.63-14.65-1.21-21.85-2.55-6.51-1.21-13.1-.91-19.68-3.13-6.85-2.31-14.14-5-21.85-3.68-1,.17-2.41.38-3.25-.73s-1.08-2.55-3-1.65c-1.23.6-1.08,1.36-.81,2.44.46,1.83-.28,4.87,2.19,4.91,3,.06,5.6,3.37,8.8.84a2.36,2.36,0,0,1,2.29.16c3.36,3.71,7.7,2.67,11.94,3,13.21,1.1,26.86.31,39.36,5.21,5.49,2.15,10.44,5.81,18.51,6.28-4.06,1.66-5.21,2.78-1.76,4,3.2,1.13,6.75,1.53,9.9,4.06-18.07.53-35.66.5-53.29,1,2.33,1.88,5.15,1.16,8.48,3.29-10.87-.75-20.64-.38-30.4-.34s-19.72-1.87-29.72-2.94c0,1.83.29,3.67,1.79,3.41,4.75-.81,9.24,2,14.08.57,2.13-.65,4.31,0,6.79,1.31,3.13,1.7,7.65,1.46,11.47,1.09a29.12,29.12,0,0,1,10.3.53c1.2.31,3.23.09,2.31,2.8-.65,1.92,1.67,2.26,2.91,2.49,13.84,2.58,27.74,4.82,41.53,7.62,5,1,9.86,3.26,14.69,5.26-11.29-1-21.72-6.77-33.43-6.2.91,3.8,5.8,3.12,6.49,6.81.11.57,1.48-.07,1.87-.88.91-1.88,2.42-1.56,3.83-.95,9.71,4.13,20.47,5,30,9.55,3.92,1.88,8.6,2.62,11.11,6.87.29.49,1.29,1.09,1.62.94,5.65-2.74,7.8,2.43,11,4.72-4.71,5.63-10.29-1-15.69,1.12Z"/><path class="cls-2" d="M339.67.36a163.41,163.41,0,0,1,31.42,1.47l-6.26.51c1.73,1.78,3.66,1.6,5.08,2.42,1,.57,3.19-.25,2.8,1.92a3.29,3.29,0,0,1-3.24,2.64c-2.53.22-5.06.48-7.93.75,1.39,2,3.27.86,4.58,2.2a91.93,91.93,0,0,1-19.77-.4c5.06-.43,9.07-3.39,13.58-5.09,1.76-.66,2.46-1.51,2.32-3.16-.17-2-1.92-1.62-3.08-1.56C352.59,2.36,346.15,1.2,339.67.36Z"/><path class="cls-2" d="M503,31.35c.14.93,1.4,1.76.69,2.67s-1.45-.1-2.09-.51c-1.63-1-3.23-1.57-5.28.15,2.79,2.72,7.26,0,9.29,3.81-3.66-1.65-8.18.71-11.45-3a3.57,3.57,0,0,0-2.77-.81c-4.39.66-8.47-2.17-12.89-1-.88.24-1.48-.48-1.68-1.43a2.16,2.16,0,0,1,1-2.54,6.49,6.49,0,0,1,7.11-.24c5.71,3.75,12.16,1.75,18.16,3Z"/><path class="cls-2" d="M398,6.42c3.69,1.18,6.5-3.08,10.38-1.11,4.21,2.14,9.43.76,14.87,4-4.87.06-8.23,2.29-11.82-.84-2-1.76-5.15-.53-7.75-1C401.82,7.2,399.81,8,398,6.42Z"/><path class="cls-2" d="M571,37.31c4.43-.17,22.2,11,26.5,16.21A118.73,118.73,0,0,1,571,37.31Z"/><path class="cls-1" d="M137.42,313.64c-6.76.42-13.23.9-19.71,1.16-1,0-3.17.53-2.9-1.62s2.6-3.56,4-2.59c5,3.54,10.43,1.32,15.63,1.67A3.17,3.17,0,0,1,137.42,313.64Z"/><path class="cls-1" d="M680.86,261.18c-4.5,2.37-8.33-2.22-12.82-1.19a5.72,5.72,0,0,1-6.66-3c6.61,2.09,13.67.24,19.55,4.24Z"/><path class="cls-1" d="M24.44,227.18c-7.68,2.15-15.39.28-23.1.47A60.66,60.66,0,0,1,24.44,227.18Z"/><path class="cls-1" d="M664.83,231.24c-7,2.33-9,1.46-9.16-3.1-.07-1.51.37-2.72,1.73-3.09,1.78-.5,3,1.06,4.38,1.83C659.74,229.58,662.7,230.19,664.83,231.24Z"/><path class="cls-2" d="M336.14,18.48c-6.45,1.42-12.91,2.71-19.54.81C323.09,18.62,329.49,16.88,336.14,18.48Z"/><path class="cls-1" d="M36.77,239.54c3.09,1.31,5.81.64,8.42,1,1.12.15,2.49.24,2.39,1.88a2,2,0,0,1-2.47,1.87c-3.34-.61-6.64-1.45-9.93-2.27-.82-.2-.8-.95-.45-1.58A1.72,1.72,0,0,1,36.77,239.54Z"/><path class="cls-2" d="M339.33,7.49c4.8-1.61,9.19-5.4,14.89-2.73C349.4,6.84,344.86,9.79,339.33,7.49Z"/><path class="cls-2" d="M44,110.25c3.9,2.46,8.42,3.16,12.94,4.54C51,117.53,50,117.16,44,110.25Z"/><path class="cls-1" d="M154.24,303.52c5.4,3.27,12.39-.7,17.42,4.23C166.45,303.64,159.12,309.12,154.24,303.52Z"/><path class="cls-1" d="M679.72,185.3a16.61,16.61,0,0,1,7.85-.24c.77.15,1.71.5,1.63,1.52s-1.06,1.07-1.84,1.2C684.42,188.26,682.28,186.08,679.72,185.3Z"/><path class="cls-2" d="M277.85,9.74a31.92,31.92,0,0,1-4.44.43c-1.62-.06-3.28,2.15-4.86-.05,2.28-.85,2.36-4.91,5.32-4.24,2.64.58,5.05-.06,7.44-.32.62,2.55-3.59.48-2.66,3.21Z"/><path class="cls-2" d="M645.54,121.2c-4.14,3.93-7.31.92-10.63-.1C638.27,120.18,641.55,120.71,645.54,121.2Z"/><path class="cls-1" d="M680.93,261.26c3.92-2.05,6.61,1.78,11.1,1.73-5,2.53-8,0-11.16-1.81Z"/><path class="cls-1" d="M551.68,254a1.9,1.9,0,0,1,2-1.78,94.11,94.11,0,0,1,14,.67c-5,1.79-10.15,1.71-15.27,1.92Z"/><path class="cls-2" d="M175,.21c2.09-.31,2.29.84,2.39,2.56.13,1.94-.86,1.54-2,1.53-2.25,0-2.78-2-2.9-3.25C172.25-.73,174,.31,175,.21Z"/><path class="cls-2" d="M520.52,39.14l-11.63-4.31c.15-.44.29-.87.44-1.3L521,37.74Z"/><path class="cls-2" d="M563.62,39c-2.8.2-4-1.37-5.46-2.21-1.32-.75-3.24-1.12-3.19-3.25,0-.42.34-1.19.52-1.19,1.76,0,3,1.15,4.2,2.24S562,37.22,563.62,39Z"/><path class="cls-2" d="M165.22,3.16c-.12-1-.63-2.26.87-2.37,2.07-.16,2.12,1.88,2.43,3.07a2.12,2.12,0,0,1-2,2.29C164.62,6,165.73,4.08,165.22,3.16Z"/><path class="cls-2" d="M640.34,75.19c-2.83-.45-6.12,1.16-8.83-1.68C634.71,73.55,637.72,72.84,640.34,75.19Z"/><path class="cls-1" d="M585,245.42a16.44,16.44,0,0,1,8.82-.5C590.6,247.53,587.76,246.07,585,245.42Z"/><path class="cls-1" d="M64.51,237.64a11,11,0,0,1-9-.52C58.53,236.46,61.55,235.65,64.51,237.64Z"/><path class="cls-1" d="M157.79,311.49c2.22-1.25,3.05-3.34,5.54-2.25C162.44,311.44,161.07,312.4,157.79,311.49Z"/><path class="cls-1" d="M83.83,273.89c-.4.17-.93.6-1.15.48-.75-.43-.44-1,0-1.5Z"/><path class="cls-1" d="M82.73,272.87c.53-.34,1.11-.55,1.57,0,.1.12-.31.66-.48,1Z"/><path class="cls-2" d="M683.78,154l-.31.33a3.08,3.08,0,0,1-.29-.61c0-.08.18-.21.28-.31Z"/><path class="cls-3" d="M636.41,236.62c-1.3,2.82-6.48.11-4.69,5,.26.72-1.63.57-2.55.72-4.16.67-8.52-.49-12.57,1.79-1,.56-3.91,1.21-4.34-1.46s2-2.8,3.69-2.9c3.41-.18,6.83-.05,10.24-.05.59-1.86-2.75-.95-1.91-2.67.7-1.44,2.35-.94,3.58-.93C630.57,236.18,633.28,236.44,636.41,236.62Z"/><path class="cls-3" d="M35.5,265.76c1.83-1.48,3.07-1.93,4.49-1a.93.93,0,0,1,.2.87C38.94,267.05,37.53,266.34,35.5,265.76Z"/><path class="cls-3" d="M566.39,49.08c-2.52-1.76-6.13-1.4-8.22-4.34,2.83-1.29,5.44-2.13,8.46-.26,2,1.23.7,2.47.62,3.75Z"/><path class="cls-3" d="M586.61,66.94c-.53-.21-1.43-.36-.94-1.11.34-.52,1.16-.34,1.57.35Z"/></g></g></svg>